<svg aria-hidden="true" style="position: absolute; width: 0; height: 0; overflow: hidden;" version="1.1" xmlns="http://www.w3.org/2000/svg" xmlns:xlink="http://www.w3.org/1999/xlink">
<defs>

<symbol id="icon-Layer-1" viewBox="0 0 32 32">
<path fill="#fff" style="fill: var(--color1, #fff)" d="M22.896 20.271c1.136 1.051 2.044 2.325 2.671 3.736 0.633 1.417 0.967 2.945 0.986 4.487 0 0.229-0.059 0.444-0.183 0.633-0.118 0.183-0.287 0.333-0.49 0.431-0.202 0.091-0.424 0.124-0.647 0.098-0.215-0.026-0.424-0.118-0.594-0.261l-4.48-3.794 2.736-5.329z"></path>
<path fill="#ff3839" style="fill: var(--color2, #ff3839)" d="M25.365 30.158c-0.392 0-0.771-0.144-1.071-0.405l-4.454-3.807 0.64-0.731 4.441 3.814c0.098 0.091 0.222 0.144 0.353 0.163s0.268 0 0.392-0.052c0.118-0.059 0.222-0.15 0.294-0.261s0.105-0.242 0.105-0.379c-0.020-1.476-0.34-2.939-0.94-4.297-0.601-1.352-1.469-2.573-2.553-3.579l0.64-0.705c1.182 1.091 2.129 2.416 2.782 3.886 0.66 1.476 1.006 3.063 1.032 4.676 0.007 0.313-0.085 0.627-0.255 0.895s-0.418 0.483-0.705 0.614c-0.215 0.105-0.457 0.163-0.699 0.17z"></path>
<path fill="#fff" style="fill: var(--color1, #fff)" d="M8.633 20.271c-1.515 1.424-2.625 3.239-3.2 5.244-0.274 0.973-0.418 1.972-0.431 2.978 0 0.229 0.065 0.444 0.183 0.633 0.124 0.183 0.294 0.333 0.496 0.431 0.196 0.091 0.425 0.124 0.647 0.098 0.215-0.026 0.425-0.118 0.594-0.261l4.46-3.794-2.749-5.329z"></path>
<path fill="#ff3839" style="fill: var(--color2, #ff3839)" d="M6.184 30.158c-0.248 0-0.49-0.052-0.712-0.157-0.287-0.131-0.535-0.34-0.705-0.614-0.17-0.268-0.255-0.581-0.255-0.901 0.020-1.607 0.372-3.2 1.025-4.676 0.653-1.469 1.6-2.795 2.782-3.892l0.653 0.705c-1.463 1.358-2.527 3.102-3.076 5.022-0.268 0.934-0.405 1.894-0.418 2.854 0 0.137 0.033 0.268 0.104 0.379s0.176 0.202 0.294 0.255c0.124 0.059 0.255 0.078 0.385 0.059 0.137-0.020 0.255-0.072 0.359-0.163l4.447-3.814 0.64 0.731-4.454 3.807c-0.3 0.261-0.679 0.405-1.071 0.405z"></path>
<path fill="#fff" style="fill: var(--color1, #fff)" d="M19.442 25.6h-7.334c-0.731-0.007-1.437-0.268-1.985-0.751-0.555-0.483-0.908-1.149-1.006-1.874l-0.444-3.435c-0.764-5.544 0.562-11.174 3.709-15.804 0.111-0.163 0.235-0.32 0.353-0.496l1.215-1.665c0.209-0.287 0.483-0.529 0.803-0.692 0.313-0.157 0.666-0.242 1.019-0.242 0.359 0 0.712 0.085 1.025 0.242 0.32 0.163 0.594 0.405 0.803 0.692l1.215 1.665c0.118 0.163 0.235 0.32 0.353 0.496 3.148 4.63 4.467 10.26 3.709 15.804l-0.451 3.416c-0.091 0.731-0.444 1.398-0.993 1.887-0.549 0.483-1.26 0.751-1.992 0.758z"></path>
<path fill="#202020" style="fill: var(--color3, #202020)" d="M19.442 26.064h-7.334c-0.849 0-1.672-0.313-2.305-0.869-0.64-0.562-1.051-1.332-1.162-2.175l-0.451-3.416c-0.777-5.669 0.575-11.422 3.801-16.144 0.111-0.17 0.235-0.34 0.353-0.503l1.221-1.685c0.255-0.346 0.588-0.627 0.967-0.823 0.385-0.196 0.81-0.294 1.241-0.294s0.855 0.098 1.241 0.294c0.385 0.196 0.718 0.477 0.973 0.823l1.215 1.685c0.118 0.163 0.235 0.333 0.353 0.503 3.226 4.722 4.585 10.475 3.807 16.144l-0.451 3.416c-0.111 0.836-0.522 1.613-1.162 2.168-0.64 0.562-1.456 0.869-2.305 0.875zM15.771 1.123c-0.281 0-0.555 0.065-0.803 0.196-0.248 0.124-0.464 0.307-0.627 0.536l-1.221 1.665-0.346 0.483c-3.089 4.532-4.382 10.044-3.624 15.478l0.451 3.409c0.078 0.614 0.379 1.175 0.842 1.58 0.457 0.405 1.051 0.627 1.672 0.633h7.327c0.614-0.007 1.208-0.235 1.665-0.64 0.464-0.405 0.764-0.96 0.849-1.574l0.444-3.409c0.744-5.427-0.542-10.945-3.631-15.471-0.111-0.163-0.222-0.32-0.34-0.49l-1.221-1.665c-0.163-0.229-0.379-0.411-0.627-0.536-0.255-0.131-0.529-0.196-0.81-0.196z"></path>
<path fill="#ff3839" style="fill: var(--color2, #ff3839)" d="M15.771 15.837c-0.849 0-1.685-0.248-2.397-0.725-0.712-0.47-1.26-1.149-1.587-1.933-0.327-0.79-0.418-1.659-0.248-2.495 0.163-0.836 0.575-1.607 1.175-2.214 0.607-0.601 1.371-1.012 2.214-1.182 0.836-0.163 1.705-0.078 2.488 0.248 0.79 0.32 1.469 0.875 1.94 1.587 0.477 0.705 0.731 1.541 0.731 2.397 0 1.143-0.451 2.24-1.26 3.050s-1.907 1.267-3.056 1.267zM15.771 8.157c-0.66 0-1.313 0.202-1.861 0.568-0.555 0.372-0.986 0.895-1.241 1.509s-0.32 1.287-0.189 1.94c0.131 0.647 0.451 1.247 0.921 1.718s1.065 0.79 1.718 0.921c0.653 0.124 1.326 0.059 1.94-0.196s1.136-0.679 1.509-1.234c0.366-0.549 0.562-1.202 0.562-1.861 0-0.895-0.353-1.744-0.986-2.371-0.627-0.633-1.482-0.986-2.371-0.986v-0.007z"></path>
<path fill="#ff3839" style="fill: var(--color2, #ff3839)" d="M15.771 30.511c-0.124 0-0.248-0.052-0.34-0.144s-0.137-0.209-0.137-0.34v-3.102c0-0.131 0.046-0.248 0.137-0.34s0.216-0.144 0.34-0.144c0.131 0 0.248 0.052 0.34 0.144s0.144 0.209 0.144 0.34v3.102c0 0.131-0.052 0.248-0.144 0.34s-0.209 0.144-0.34 0.144z"></path>
<path fill="#ff3839" style="fill: var(--color2, #ff3839)" d="M13.531 31.706c-0.124 0-0.248-0.052-0.34-0.144-0.091-0.085-0.137-0.209-0.137-0.34v-2.743c0-0.131 0.046-0.255 0.137-0.34 0.091-0.091 0.216-0.144 0.34-0.144 0.131 0 0.248 0.052 0.34 0.144 0.091 0.085 0.144 0.209 0.144 0.34v2.756c-0.007 0.124-0.059 0.242-0.144 0.333-0.091 0.085-0.216 0.137-0.34 0.137z"></path>
<path fill="#ff3839" style="fill: var(--color2, #ff3839)" d="M18.011 31.706c-0.124 0-0.248-0.052-0.34-0.144-0.091-0.085-0.137-0.209-0.137-0.34v-2.743c0-0.131 0.046-0.255 0.137-0.34 0.091-0.091 0.215-0.144 0.34-0.144 0.131 0 0.248 0.052 0.34 0.144 0.091 0.085 0.144 0.209 0.144 0.34v2.756c-0.007 0.124-0.059 0.242-0.144 0.333-0.091 0.085-0.215 0.137-0.34 0.137z"></path>
</symbol>

<symbol id="icon-UX-UI" viewBox="0 0 32 32">
<path fill="#fff" style="fill: var(--color1, #fff)" d="M6.446 1.417h10.828c1.189 0 2.162 0.967 2.162 2.162v24.712c0 1.195-0.973 2.162-2.162 2.162h-10.828c-1.195 0-2.162-0.967-2.162-2.162v-24.712c0-1.195 0.967-2.162 2.162-2.162z"></path>
<path fill="#202020" style="fill: var(--color3, #202020)" d="M17.28 30.929h-10.834c-0.699 0-1.371-0.274-1.868-0.771s-0.771-1.169-0.771-1.868v-24.705c0-0.705 0.274-1.371 0.771-1.868s1.169-0.777 1.868-0.777h10.834c0.699 0 1.371 0.281 1.868 0.777 0.49 0.496 0.771 1.162 0.771 1.868v24.705c0 0.699-0.281 1.371-0.771 1.868-0.496 0.496-1.169 0.771-1.868 0.771zM6.446 1.9c-0.444 0-0.875 0.176-1.189 0.49-0.313 0.32-0.49 0.744-0.49 1.195v24.705c0 0.444 0.176 0.869 0.49 1.189 0.32 0.313 0.745 0.49 1.189 0.49h10.834c0.444 0 0.869-0.176 1.189-0.49 0.313-0.32 0.49-0.744 0.49-1.189v-24.705c0-0.451-0.176-0.875-0.49-1.195-0.32-0.313-0.744-0.49-1.189-0.49h-10.834z"></path>
<path fill="#202020" style="fill: var(--color3, #202020)" d="M14.002 4.186h-4.284c-0.555 0-1.078-0.222-1.469-0.607-0.392-0.392-0.607-0.921-0.607-1.469v-1.169h8.438v1.169c0 0.549-0.216 1.078-0.607 1.469-0.392 0.385-0.914 0.607-1.469 0.607zM8.601 1.9v0.209c0 0.294 0.118 0.581 0.327 0.79s0.49 0.327 0.79 0.327h4.284c0.3 0 0.581-0.118 0.79-0.327s0.327-0.496 0.327-0.79v-0.209h-6.518z"></path>
<path fill="#ff3839" style="fill: var(--color2, #ff3839)" d="M17.502 6.524h-11.285c-0.124 0-0.248-0.052-0.34-0.137-0.091-0.091-0.137-0.215-0.137-0.34 0-0.131 0.046-0.255 0.137-0.34 0.091-0.091 0.215-0.144 0.34-0.144h11.285c0.124 0 0.248 0.052 0.34 0.144 0.091 0.085 0.137 0.209 0.137 0.34 0 0.124-0.046 0.248-0.137 0.34-0.091 0.085-0.215 0.137-0.34 0.137z"></path>
<path fill="#ff3839" style="fill: var(--color2, #ff3839)" d="M17.502 8.268h-11.285c-0.124 0-0.248-0.052-0.34-0.144s-0.137-0.209-0.137-0.34c0-0.124 0.046-0.248 0.137-0.34s0.215-0.137 0.34-0.137h11.285c0.124 0 0.248 0.046 0.34 0.137s0.137 0.215 0.137 0.34c0 0.131-0.046 0.248-0.137 0.34s-0.215 0.144-0.34 0.144z"></path>
<path fill="#ff3839" style="fill: var(--color2, #ff3839)" d="M17.502 9.985h-4.258c-0.124 0-0.248-0.046-0.34-0.137s-0.137-0.216-0.137-0.34c0-0.131 0.046-0.248 0.137-0.34s0.216-0.144 0.34-0.144h4.258c0.124 0 0.248 0.052 0.34 0.144s0.137 0.209 0.137 0.34c0 0.124-0.137 0.34-0.137 0.34s-0.215 0.137-0.34 0.137z"></path>
<path fill="#fff" style="fill: var(--color1, #fff)" d="M25.293 21.433h4.16c0.575 0 1.045 0.47 1.045 1.045v0.268c0 0.575-0.47 1.045-1.045 1.045h-4.16c-0.575 0-1.038-0.47-1.038-1.045v-0.268c0-0.575 0.464-1.045 1.038-1.045z"></path>
<path fill="#202020" style="fill: var(--color3, #202020)" d="M29.44 24.268h-4.16c-0.405 0-0.797-0.163-1.078-0.444-0.287-0.287-0.451-0.679-0.451-1.084v-0.261c0-0.405 0.163-0.79 0.451-1.078 0.281-0.287 0.673-0.444 1.078-0.444h4.16c0.398 0 0.79 0.157 1.071 0.444 0.287 0.287 0.451 0.673 0.451 1.078v0.261c0 0.405-0.163 0.797-0.451 1.084-0.281 0.281-0.673 0.444-1.071 0.444zM25.28 21.917c-0.15 0-0.294 0.059-0.398 0.163-0.111 0.105-0.17 0.248-0.17 0.398v0.261c0 0.15 0.059 0.294 0.163 0.405 0.111 0.105 0.255 0.163 0.405 0.163h4.16c0.144 0 0.287-0.059 0.398-0.163 0.105-0.111 0.163-0.255 0.163-0.405v-0.261c0-0.15-0.059-0.294-0.17-0.398-0.105-0.105-0.248-0.163-0.392-0.163h-4.16z"></path>
<path fill="#fff" style="fill: var(--color1, #fff)" d="M25.293 15.151h4.16c0.575 0 1.045 0.464 1.045 1.038v0.274c0 0.575-0.47 1.038-1.045 1.038h-4.16c-0.575 0-1.038-0.464-1.038-1.038v-0.274c0-0.575 0.464-1.038 1.038-1.038z"></path>
<path fill="#202020" style="fill: var(--color3, #202020)" d="M29.44 17.985h-4.16c-0.405 0-0.797-0.163-1.078-0.451-0.287-0.287-0.451-0.673-0.451-1.078v-0.268c0-0.398 0.163-0.79 0.451-1.078 0.281-0.281 0.673-0.444 1.078-0.444h4.16c0.398 0 0.79 0.163 1.071 0.451 0.287 0.281 0.451 0.673 0.451 1.071v0.268c0 0.405-0.163 0.79-0.451 1.078-0.281 0.287-0.673 0.451-1.071 0.451zM25.28 15.628c-0.15 0-0.294 0.059-0.398 0.163-0.111 0.111-0.17 0.255-0.17 0.398v0.268c0 0.072 0.013 0.15 0.046 0.215 0.026 0.072 0.065 0.131 0.118 0.183s0.118 0.098 0.183 0.124c0.072 0.033 0.144 0.046 0.222 0.046h4.16c0.072 0 0.144-0.013 0.215-0.046 0.065-0.026 0.131-0.072 0.183-0.124s0.091-0.111 0.118-0.183c0.033-0.065 0.046-0.144 0.046-0.215v-0.268c0-0.144-0.059-0.287-0.17-0.398-0.105-0.104-0.248-0.163-0.392-0.163h-4.16z"></path>
<path fill="#fff" style="fill: var(--color1, #fff)" d="M25.293 10.782h4.16c0.575 0 1.045 0.464 1.045 1.045v0.268c0 0.575-0.47 1.038-1.045 1.038h-4.16c-0.575 0-1.038-0.464-1.038-1.038v-0.268c0-0.581 0.464-1.045 1.038-1.045z"></path>
<path fill="#202020" style="fill: var(--color3, #202020)" d="M29.44 13.616h-4.16c-0.405 0-0.797-0.163-1.078-0.451-0.287-0.281-0.451-0.673-0.451-1.078v-0.255c0-0.398 0.163-0.79 0.451-1.071 0.281-0.287 0.673-0.451 1.078-0.451h4.16c0.196 0 0.398 0.039 0.581 0.118 0.189 0.072 0.359 0.183 0.503 0.327 0.137 0.144 0.255 0.307 0.333 0.496 0.078 0.183 0.118 0.385 0.118 0.581v0.268c-0.007 0.405-0.17 0.79-0.457 1.078-0.287 0.281-0.679 0.438-1.078 0.438zM25.28 11.259c-0.15 0.007-0.294 0.072-0.392 0.176-0.105 0.111-0.157 0.255-0.157 0.398v0.268c0 0.15 0.059 0.294 0.163 0.398 0.111 0.111 0.255 0.17 0.398 0.17h4.147c0.144 0 0.287-0.059 0.398-0.17 0.105-0.104 0.163-0.248 0.163-0.398v-0.268c0-0.072-0.013-0.144-0.039-0.216s-0.072-0.137-0.124-0.189c-0.052-0.052-0.111-0.091-0.183-0.124-0.072-0.026-0.144-0.046-0.215-0.046h-4.16z"></path>
<path fill="#202020" style="fill: var(--color3, #202020)" d="M20.225 27.84h-2.723v-0.96h2.723c0.183 0 0.353-0.078 0.483-0.202 0.131-0.131 0.202-0.307 0.202-0.483v-2.423c0-0.431 0.17-0.849 0.477-1.162 0.307-0.307 0.725-0.477 1.162-0.477h1.704v0.96h-1.704c-0.183 0-0.353 0.072-0.483 0.202-0.124 0.124-0.196 0.3-0.196 0.477v2.41c0 0.215-0.046 0.431-0.124 0.633-0.085 0.202-0.202 0.385-0.359 0.535-0.15 0.157-0.333 0.274-0.535 0.359-0.196 0.085-0.411 0.124-0.627 0.131z"></path>
<path fill="#202020" style="fill: var(--color3, #202020)" d="M15.641 26.168h-0.96v-8.679c0-0.438 0.176-0.849 0.483-1.156 0.3-0.307 0.718-0.483 1.156-0.49h7.935v0.96h-7.935c-0.183 0-0.359 0.072-0.483 0.202-0.131 0.131-0.202 0.3-0.202 0.483l0.007 8.679z"></path>
<path fill="#202020" style="fill: var(--color3, #202020)" d="M12.336 26.168h-0.96v-13.048c0.007-0.438 0.176-0.855 0.483-1.162 0.313-0.307 0.731-0.483 1.162-0.483h11.233v0.96h-11.233c-0.176 0-0.353 0.072-0.483 0.202-0.124 0.124-0.196 0.3-0.202 0.483v13.048z"></path>
<path fill="#fff" style="fill: var(--color1, #fff)" d="M7.262 26.168h9.195c0.575 0 1.045 0.47 1.045 1.045v0.268c0 0.575-0.47 1.045-1.045 1.045h-9.195c-0.575 0-1.045-0.47-1.045-1.045v-0.268c0-0.575 0.47-1.045 1.045-1.045z"></path>
<path fill="#ff3839" style="fill: var(--color2, #ff3839)" d="M16.457 29.002h-9.195c-0.405 0-0.79-0.157-1.078-0.444s-0.444-0.673-0.444-1.078v-0.268c0-0.405 0.157-0.79 0.444-1.078s0.673-0.444 1.078-0.444h9.195c0.398 0 0.79 0.157 1.078 0.444 0.281 0.287 0.444 0.673 0.444 1.078v0.268c0 0.405-0.157 0.79-0.444 1.078s-0.673 0.444-1.078 0.444zM7.262 26.651c-0.15 0-0.294 0.059-0.398 0.163s-0.163 0.248-0.163 0.398v0.268c0 0.15 0.059 0.294 0.163 0.398s0.248 0.163 0.398 0.163h9.195c0.072 0 0.144-0.013 0.215-0.039 0.065-0.033 0.131-0.072 0.183-0.124s0.091-0.118 0.124-0.183c0.026-0.072 0.039-0.144 0.039-0.215v-0.268c0-0.072-0.013-0.15-0.039-0.215-0.033-0.072-0.072-0.131-0.124-0.183s-0.118-0.098-0.183-0.124c-0.072-0.026-0.144-0.039-0.215-0.039h-9.195z"></path>
</symbol>

<symbol id="icon-Development" viewBox="0 0 32 32">
<path fill="#fff" style="fill: var(--color1, #fff)" d="M6.917 5.053h18.161c1.342 0 2.431 1.325 2.431 2.964v14.838c0 1.639-1.089 2.97-2.431 2.97h-18.161c-1.342 0-2.425-1.331-2.425-2.97v-14.838c0-1.639 1.083-2.964 2.425-2.964z"></path>
<path fill="#202020" style="fill: var(--color3, #202020)" d="M25.084 26.588h-18.173c-0.752 0-1.471-0.371-2.004-1.027-0.528-0.657-0.831-1.544-0.831-2.47v-15.006c0-0.932 0.303-1.819 0.831-2.476 0.533-0.657 1.252-1.027 2.004-1.027h18.173c0.752 0 1.471 0.371 2.004 1.027 0.528 0.657 0.831 1.544 0.831 2.476v15.006c0 0.926-0.303 1.813-0.831 2.47-0.533 0.657-1.252 1.027-2.004 1.027zM6.911 5.58c-0.533 0.006-1.050 0.264-1.432 0.735-0.376 0.472-0.589 1.106-0.589 1.768v15.006c0 0.662 0.213 1.297 0.589 1.763 0.382 0.472 0.898 0.735 1.432 0.735h18.173c0.533 0 1.050-0.264 1.432-0.735 0.376-0.466 0.589-1.1 0.589-1.763v-15.006c0-0.662-0.213-1.297-0.589-1.768-0.382-0.472-0.898-0.73-1.432-0.735h-18.173z"></path>
<path fill="#ff3839" style="fill: var(--color2, #ff3839)" d="M7.147 6.804c0 0.275-0.225 0.5-0.5 0.5-0.281 0-0.505-0.225-0.505-0.5s0.225-0.5 0.505-0.5c0.275 0 0.5 0.225 0.5 0.5z"></path>
<path fill="#ff3839" style="fill: var(--color2, #ff3839)" d="M8.842 6.804c0 0.275-0.225 0.5-0.5 0.5s-0.5-0.225-0.5-0.5c0-0.275 0.225-0.5 0.5-0.5s0.5 0.225 0.5 0.5z"></path>
<path fill="#ff3839" style="fill: var(--color2, #ff3839)" d="M10.543 6.804c0 0.275-0.225 0.5-0.5 0.5-0.281 0-0.505-0.225-0.505-0.5s0.225-0.5 0.505-0.5c0.275 0 0.5 0.225 0.5 0.5z"></path>
<path fill="#ff3839" style="fill: var(--color2, #ff3839)" d="M25.308 7.214h-4.632c-0.112 0-0.219-0.039-0.292-0.118-0.079-0.079-0.123-0.185-0.123-0.292 0-0.112 0.045-0.213 0.123-0.292 0.073-0.079 0.18-0.123 0.292-0.123h4.632c0.112 0 0.213 0.045 0.292 0.123s0.123 0.18 0.123 0.292c0 0.107-0.045 0.213-0.123 0.292s-0.18 0.118-0.292 0.118z"></path>
<path fill="#ff3839" style="fill: var(--color2, #ff3839)" d="M14.305 20.429c-0.073 0-0.14-0.017-0.202-0.051s-0.112-0.084-0.152-0.146c-0.034-0.056-0.056-0.123-0.062-0.197 0-0.067 0.011-0.14 0.045-0.202l3.363-6.771c0.051-0.095 0.135-0.174 0.241-0.208 0.101-0.034 0.213-0.028 0.314 0.022 0.095 0.045 0.174 0.135 0.208 0.236 0.034 0.107-0.022 0.314-0.022 0.314l-3.368 6.776c-0.034 0.067-0.152 0.163-0.152 0.163s-0.14 0.062-0.213 0.062z"></path>
<path fill="#ff3839" style="fill: var(--color2, #ff3839)" d="M19.531 19.082c-0.067 0-0.135-0.017-0.197-0.051s-0.112-0.079-0.152-0.135c-0.028-0.045-0.051-0.095-0.062-0.146-0.006-0.056-0.006-0.112 0-0.163 0.011-0.051 0.034-0.101 0.062-0.146 0.034-0.045 0.073-0.084 0.118-0.118l2.611-1.735-2.448-1.628c-0.090-0.062-0.152-0.152-0.174-0.258-0.022-0.112 0-0.219 0.062-0.314 0.062-0.090 0.152-0.152 0.264-0.174 0.107-0.022 0.213 0 0.309 0.062l2.953 1.971c0.056 0.034 0.101 0.084 0.135 0.146 0.028 0.062 0.045 0.129 0.045 0.197s-0.017 0.135-0.045 0.197c-0.034 0.056-0.079 0.107-0.135 0.146l-3.121 2.077c-0.067 0.045-0.146 0.073-0.225 0.073z"></path>
<path fill="#ff3839" style="fill: var(--color2, #ff3839)" d="M12.463 19.082c-0.079 0-0.157-0.028-0.225-0.073l-3.116-2.077c-0.062-0.039-0.107-0.090-0.14-0.146-0.028-0.062-0.045-0.129-0.045-0.197s0.017-0.135 0.045-0.197c0.034-0.062 0.079-0.112 0.14-0.146l2.959-1.971c0.090-0.062 0.202-0.084 0.309-0.062s0.202 0.084 0.264 0.174c0.056 0.095 0.079 0.202 0.056 0.314-0.017 0.107-0.084 0.197-0.174 0.258l-2.453 1.628 2.616 1.735c0.039 0.034 0.079 0.073 0.112 0.118 0.028 0.045 0.051 0.095 0.062 0.146 0.006 0.051 0.006 0.107 0 0.163-0.011 0.051-0.034 0.101-0.062 0.146-0.039 0.056-0.090 0.101-0.152 0.135s-0.129 0.051-0.197 0.051z"></path>
<path fill="#202020" style="fill: var(--color3, #202020)" d="M4.272 7.927h23.45v0.825h-23.45v-0.825z"></path>
</symbol>

<symbol id="icon-Wireframing" viewBox="0 0 32 32">
<path fill="#fff" style="fill: var(--color1, #fff)" d="M3.011 4.193h26.109c0.398 0 0.725 0.32 0.725 0.718v22.165c0 0.398-0.327 0.725-0.725 0.725h-26.109c-0.398 0-0.718-0.327-0.718-0.725v-22.165c0-0.398 0.32-0.718 0.718-0.718z"></path>
<path fill="#202020" style="fill: var(--color3, #202020)" d="M29.12 28.284h-26.103c-0.32-0.007-0.627-0.131-0.856-0.353-0.222-0.229-0.353-0.535-0.353-0.855v-22.158c0-0.32 0.131-0.627 0.353-0.856 0.229-0.222 0.535-0.346 0.856-0.353h26.103c0.313 0.007 0.62 0.131 0.842 0.359 0.229 0.222 0.353 0.529 0.353 0.849v22.158c0 0.32-0.124 0.627-0.353 0.849-0.222 0.229-0.529 0.353-0.842 0.359zM3.017 4.669c-0.065 0-0.131 0.026-0.176 0.072s-0.072 0.111-0.072 0.176v22.158c0 0.065 0.026 0.131 0.072 0.176s0.111 0.072 0.176 0.072h26.103c0.059-0.007 0.124-0.026 0.17-0.072 0.039-0.046 0.065-0.111 0.065-0.176v-22.158c0-0.065-0.026-0.131-0.065-0.176-0.046-0.039-0.111-0.065-0.17-0.072h-26.103z"></path>
<path fill="#ff3839" style="fill: var(--color2, #ff3839)" d="M5.662 6.211c0 0.32-0.261 0.581-0.581 0.581-0.327 0-0.588-0.261-0.588-0.581 0-0.327 0.261-0.588 0.588-0.588 0.32 0 0.581 0.261 0.581 0.588z"></path>
<path fill="#ff3839" style="fill: var(--color2, #ff3839)" d="M7.66 6.211c0 0.32-0.261 0.581-0.588 0.581-0.32 0-0.581-0.261-0.581-0.581 0-0.327 0.261-0.588 0.581-0.588 0.327 0 0.588 0.261 0.588 0.588z"></path>
<path fill="#ff3839" style="fill: var(--color2, #ff3839)" d="M9.652 6.211c0 0.32-0.261 0.581-0.581 0.581-0.327 0-0.588-0.261-0.588-0.581 0-0.327 0.261-0.588 0.588-0.588 0.32 0 0.581 0.261 0.581 0.588z"></path>
<path fill="#ff3839" style="fill: var(--color2, #ff3839)" d="M27.011 6.687h-5.44c-0.131 0-0.255-0.052-0.34-0.137-0.091-0.091-0.144-0.215-0.144-0.34 0-0.131 0.052-0.255 0.144-0.34 0.085-0.091 0.209-0.144 0.34-0.144h5.44c0.124 0 0.248 0.052 0.34 0.144 0.085 0.085 0.137 0.209 0.137 0.34 0 0.124-0.052 0.248-0.137 0.34-0.091 0.085-0.215 0.137-0.34 0.137z"></path>
<path fill="#202020" style="fill: var(--color3, #202020)" d="M2.292 7.53h27.553v0.96h-27.553v-0.96z"></path>
<path fill="#fff" style="fill: var(--color1, #fff)" d="M4.291 9.783h23.523c0.157 0 0.287 0.131 0.287 0.294v2.9c0 0.163-0.131 0.294-0.287 0.294h-23.523c-0.163 0-0.294-0.131-0.294-0.294v-2.9c0-0.163 0.131-0.294 0.294-0.294z"></path>
<path fill="#202020" style="fill: var(--color3, #202020)" d="M27.814 13.584h-23.523c-0.163 0-0.32-0.065-0.431-0.176-0.118-0.118-0.183-0.268-0.183-0.431v-2.9c0-0.163 0.065-0.32 0.183-0.431 0.111-0.118 0.268-0.183 0.431-0.183h23.523c0.157 0.007 0.313 0.065 0.424 0.183 0.118 0.111 0.183 0.268 0.183 0.431v2.9c0 0.163-0.065 0.313-0.183 0.431-0.111 0.111-0.268 0.176-0.424 0.176zM4.317 12.944h23.465v-2.841h-23.465v2.841z"></path>
<path fill="#fff" style="fill: var(--color1, #fff)" d="M19.246 15.282h8.562c0.157 0 0.287 0.124 0.287 0.287v10.338c0 0.157-0.131 0.287-0.287 0.287h-8.562c-0.163 0-0.287-0.131-0.287-0.287v-10.338c0-0.163 0.124-0.287 0.287-0.287z"></path>
<path fill="#202020" style="fill: var(--color3, #202020)" d="M27.814 26.514h-8.568c-0.157 0-0.313-0.065-0.424-0.176s-0.183-0.261-0.183-0.424v-10.345c0-0.163 0.065-0.32 0.176-0.431 0.118-0.111 0.274-0.176 0.431-0.176h8.568c0.157 0 0.313 0.065 0.424 0.176 0.118 0.118 0.183 0.268 0.183 0.431v10.345c-0.007 0.163-0.072 0.313-0.183 0.424-0.118 0.111-0.268 0.176-0.424 0.176zM19.278 25.874h8.503v-10.273h-8.503v10.273z"></path>
<path fill="#fff" style="fill: var(--color1, #fff)" d="M7.948 23.53h8.562c0.163 0 0.287 0.131 0.287 0.287v1.541c0 0.163-0.124 0.287-0.287 0.287h-8.562c-0.157 0-0.287-0.124-0.287-0.287v-1.541c0-0.157 0.131-0.287 0.287-0.287z"></path>
<path fill="#202020" style="fill: var(--color3, #202020)" d="M16.516 25.966h-8.568c-0.157 0-0.313-0.065-0.431-0.183-0.111-0.111-0.176-0.268-0.176-0.424v-1.541c0-0.163 0.065-0.313 0.176-0.431 0.118-0.111 0.274-0.176 0.431-0.176h8.568c0.163 0 0.313 0.065 0.431 0.176 0.111 0.118 0.176 0.268 0.176 0.431v1.541c0 0.157-0.065 0.313-0.176 0.424-0.118 0.118-0.268 0.183-0.431 0.183zM8 25.326h8.483v-1.476h-8.483v1.476z"></path>
<path fill="#ff3839" style="fill: var(--color2, #ff3839)" d="M16.803 16.836h-5.44c-0.131 0-0.248-0.046-0.34-0.137s-0.144-0.215-0.144-0.34c0-0.131 0.052-0.248 0.144-0.34s0.209-0.144 0.34-0.144h5.44c0.124 0 0.248 0.052 0.34 0.144s0.137 0.209 0.137 0.34c0 0.124-0.046 0.248-0.137 0.34s-0.215 0.137-0.34 0.137z"></path>
<path fill="#ff3839" style="fill: var(--color2, #ff3839)" d="M16.803 18.743h-11.285c-0.085 0-0.163-0.033-0.222-0.091-0.065-0.065-0.098-0.144-0.098-0.229s0.033-0.17 0.098-0.229c0.059-0.059 0.137-0.091 0.222-0.091h11.285c0.085 0 0.163 0.033 0.229 0.091 0.059 0.059 0.091 0.144 0.091 0.229s-0.033 0.163-0.091 0.229c-0.065 0.059-0.144 0.091-0.229 0.091z"></path>
<path fill="#ff3839" style="fill: var(--color2, #ff3839)" d="M16.803 20.206h-11.285c-0.085 0-0.163-0.033-0.222-0.091-0.065-0.059-0.098-0.144-0.098-0.229s0.033-0.163 0.098-0.222c0.059-0.059 0.137-0.098 0.222-0.098h11.285c0.085 0 0.163 0.039 0.229 0.098 0.059 0.059 0.091 0.137 0.091 0.222s-0.033 0.17-0.091 0.229c-0.065 0.059-0.144 0.091-0.229 0.091z"></path>
<path fill="#ff3839" style="fill: var(--color2, #ff3839)" d="M16.803 21.629h-8.32c-0.085 0-0.163-0.033-0.229-0.091-0.059-0.059-0.091-0.144-0.091-0.229s0.033-0.163 0.091-0.222c0.065-0.059 0.144-0.098 0.229-0.098h8.32c0.085 0 0.163 0.039 0.229 0.098 0.059 0.059 0.091 0.137 0.091 0.222s-0.033 0.17-0.091 0.229c-0.065 0.059-0.144 0.091-0.229 0.091z"></path>
<path fill="#202020" style="fill: var(--color3, #202020)" d="M19.154 25.711l8.359-10.495 0.503 0.398-8.359 10.495-0.503-0.398z"></path>
<path fill="#202020" style="fill: var(--color3, #202020)" d="M18.952 15.784l0.49-0.411 8.562 10.423-0.496 0.405-8.555-10.416z"></path>
<path fill="#202020" style="fill: var(--color3, #202020)" d="M3.709 12.78l24.398-2.854 0.039 0.32-24.398 2.854-0.039-0.32z"></path>
<path fill="#202020" style="fill: var(--color3, #202020)" d="M3.709 10.253l0.039-0.313 24.398 2.841-0.039 0.32-24.398-2.847z"></path>
</symbol>

<symbol id="icon-vuesax_linear_location" viewBox="0 0 32 32">
<path fill="none" stroke="#ff3839" style="stroke: var(--color2, #ff3839)" stroke-linejoin="miter" stroke-linecap="butt" stroke-miterlimit="4" stroke-width="2" d="M16 17.907c-2.307 0-4.16-1.867-4.16-4.16 0-2.307 1.853-4.173 4.16-4.173 2.293 0 4.16 1.867 4.16 4.173 0 2.293-1.867 4.16-4.16 4.16z"></path>
<path fill="none" stroke="#ff3839" style="stroke: var(--color2, #ff3839)" stroke-linejoin="miter" stroke-linecap="butt" stroke-miterlimit="4" stroke-width="2" d="M27.16 11.333c1.547 6.773-2.667 12.493-6.36 16.053-2.68 2.587-6.92 2.587-9.613 0-3.68-3.56-7.893-9.307-6.36-16.067 2.627-11.547 19.733-11.547 22.333 0.013z"></path>
</symbol>

<symbol id="icon-call" viewBox="0 0 32 32">
<path fill="none" stroke="#ff3839" style="stroke: var(--color2, #ff3839)" stroke-linejoin="miter" stroke-linecap="butt" stroke-miterlimit="4" stroke-width="2" d="M28.96 25.88c-0.227 0.48-0.52 0.947-0.907 1.36-0.653 0.733-1.373 1.253-2.187 1.587s-1.667 0.507-2.6 0.507c-1.36 0-2.813-0.333-4.347-0.973-1.533-0.667-3.067-1.533-4.587-2.64-1.533-1.12-2.987-2.36-4.373-3.733-1.373-1.387-2.613-2.853-3.733-4.36-1.093-1.52-1.96-3.053-2.6-4.547-0.653-1.533-0.96-2.973-0.96-4.36 0-0.92 0.147-1.787 0.467-2.587 0.333-0.8 0.84-1.56 1.547-2.227 0.84-0.827 1.787-1.24 2.773-1.24 0.373 0 0.733 0.080 1.067 0.24 0.36 0.147 0.667 0.387 0.907 0.747l3.093 4.347c0.24 0.333 0.413 0.653 0.533 0.933s0.173 0.56 0.173 0.813c0 0.333-0.093 0.64-0.267 0.947s-0.44 0.64-0.747 0.96l-1.027 1.040c-0.133 0.16-0.213 0.333-0.213 0.547 0 0.093 0.027 0.2 0.040 0.307 0.040 0.107 0.080 0.173 0.12 0.253 0.24 0.44 0.653 1.027 1.24 1.72 0.6 0.693 1.24 1.387 1.933 2.107 0.72 0.707 1.413 1.36 2.12 1.947 0.693 0.587 1.267 1 1.72 1.227 0.067 0.027 0.147 0.080 0.24 0.107 0.107 0.053 0.213 0.067 0.333 0.067 0.227 0 0.4-0.093 0.547-0.227l1.013-1c0.333-0.333 0.653-0.587 0.96-0.747 0.307-0.2 0.613-0.28 0.947-0.28 0.253 0 0.52 0.053 0.813 0.16 0.28 0.12 0.6 0.307 0.933 0.533l4.413 3.133c0.347 0.227 0.587 0.507 0.733 0.84 0.133 0.333 0.213 0.667 0.213 1.053 0 0.467-0.107 0.973-0.333 1.44z"></path>
</symbol>

<symbol id="icon-sms" viewBox="0 0 32 32">
<path fill="none" stroke="#ff3839" style="stroke: var(--color2, #ff3839)" stroke-linejoin="round" stroke-linecap="butt" stroke-miterlimit="4" stroke-width="2" d="M9.333 27.333c-4 0-6.667-2-6.667-6.667v-9.333c0-4.667 2.667-6.667 6.667-6.667h13.333c4 0 6.667 2 6.667 6.667v9.333c0 4.667-2.667 6.667-6.667 6.667h-13.333z"></path>
<path fill="none" stroke="#ff3839" style="stroke: var(--color2, #ff3839)" stroke-linejoin="round" stroke-linecap="round" stroke-miterlimit="4" stroke-width="2" d="M22.667 12l-4.173 3.333c-1.373 1.080-3.627 1.080-5 0l-4.16-3.333"></path>
</symbol>

<symbol id="icon-Instagram" viewBox="0 0 32 32">
<path fill="#fff" style="fill: var(--color1, #fff)" d="M25.805 30.983h-20.626c-2.85 0-5.179-2.329-5.179-5.179v-20.626c0-2.85 2.329-5.179 5.179-5.179h20.626c2.85 0 5.179 2.329 5.179 5.179v20.626c0 2.863-2.316 5.179-5.179 5.179z"></path>
<path fill="#000" style="fill: var(--color4, #000)" d="M15.498 23.451c-2.125 0-4.123-0.827-5.624-2.329s-2.329-3.499-2.329-5.624 0.827-4.123 2.329-5.624c1.501-1.501 3.499-2.329 5.624-2.329s4.123 0.827 5.624 2.329c1.501 1.501 2.329 3.499 2.329 5.624s-0.827 4.123-2.329 5.624c-1.514 1.502-3.499 2.329-5.624 2.329zM15.498 9.238c-3.448 0-6.26 2.799-6.26 6.26 0 3.448 2.799 6.26 6.26 6.26 3.448 0 6.26-2.799 6.26-6.26-0.013-3.448-2.812-6.26-6.26-6.26z"></path>
<path fill="#000" style="fill: var(--color4, #000)" d="M25.001 7.284c0.843 0 1.527-0.684 1.527-1.527s-0.684-1.527-1.527-1.527c-0.843 0-1.527 0.684-1.527 1.527s0.684 1.527 1.527 1.527z"></path>
</symbol>

<symbol id="icon-LinkedIn" viewBox="0 0 32 32">
<path fill="#fff" style="fill: var(--color1, #fff)" d="M6.952 10.123h-6.433v20.514h6.433v-20.514z"></path>
<path fill="#fff" style="fill: var(--color1, #fff)" d="M24.352 9.679c-0.237-0.030-0.489-0.044-0.741-0.059-3.602-0.148-5.632 1.986-6.344 2.905-0.193 0.252-0.282 0.4-0.282 0.4v-2.742h-6.151v20.514h6.433c0-2.090 0-4.165 0-6.255 0-1.127 0-2.253 0-3.379 0-1.393-0.104-2.876 0.593-4.15 0.593-1.067 1.66-1.601 2.861-1.601 3.557 0 3.631 3.216 3.631 3.513 0 0.015 0 0.030 0 0.030v11.932h6.433v-13.384c0-4.58-2.327-7.278-6.433-7.722z"></path>
<path fill="#fff" style="fill: var(--color1, #fff)" d="M3.735 7.47c2.063 0 3.735-1.672 3.735-3.735s-1.672-3.735-3.735-3.735c-2.063 0-3.735 1.672-3.735 3.735s1.672 3.735 3.735 3.735z"></path>
</symbol>

<symbol id="icon-Twitter" viewBox="0 0 36 32">
<path fill="#fff" style="fill: var(--color1, #fff)" d="M0 27.414c3.904 0.222 7.318-0.701 10.647-3.144-3.363-0.581-5.695-2.136-6.963-5.348 0.98-0.137 1.842 0.12 2.856-0.29-3.312-1.47-5.459-3.674-5.543-7.484 1.048 0.085 1.842 0.786 3.093 0.684-3.042-3.007-3.971-6.288-2.062-10.269 3.177 3.691 6.895 6.203 11.441 7.382 0.254 0.068 0.49 0.137 0.744 0.188 1.166 0.273 2.552 0.854 3.262 0.769 1.217-0.154 0-1.572 0.304-3.417 0.963-5.741 7.216-8.356 11.847-4.989 1.352 0.991 2.417 0.974 3.752 0.376 0.693-0.308 1.403-0.615 2.231-0.974-0.186 1.64-1.437 2.546-2.434 3.759 1.132 0.256 2.045-0.068 3.093-0.41-0.355 1.179-1.234 1.845-2.028 2.495-0.828 0.666-1.149 1.367-1.183 2.461-0.507 16.558-19.114 29.356-31.839 19.172-1.234-0.991-0.034 0-1.217-0.957z"></path>
</symbol>

<symbol id="icon-Facebook" viewBox="0 0 19 32">
<path fill="#fff" style="fill: var(--color1, #fff)" d="M11.861 18.604v13.396h-6.479v-13.396h-5.383v-5.432h5.383v-1.976c0-7.337 3.227-11.195 10.055-11.195 2.093 0 2.617 0.32 3.763 0.58v5.373c-1.283-0.213-1.645-0.331-2.978-0.331-1.582 0-2.43 0.426-3.202 1.266s-1.159 2.296-1.159 4.379v1.917h7.339l-1.969 5.432h-5.37v-0.012z"></path>
</symbol>

<symbol id="icon-Ellipse-1" viewBox="0 0 32 32">
<path fill="#ff3839" style="fill: var(--color2, #ff3839); stroke: var(--color1, #fff)" stroke="#fff" stroke-linejoin="miter" stroke-linecap="butt" stroke-miterlimit="4" stroke-width="0.9697" d="M31.452 15.962c0 8.548-6.929 15.477-15.477 15.477s-15.477-6.929-15.477-15.477c0-8.548 6.929-15.477 15.477-15.477s15.477 6.929 15.477 15.477z"></path>
</symbol>

<symbol id="icon-Group-9" viewBox="0 0 214 32">
<path fill="#ff3839" style="fill: var(--color2, #ff3839)" d="M16.648 0.21l4.071 9.788 10.567 0.847-8.051 6.897 2.46 10.312-9.047-5.526-9.047 5.526 2.46-10.312-8.051-6.897 10.567-0.847 4.071-9.788z"></path>
<path fill="#ff3839" style="fill: var(--color2, #ff3839)" d="M62.090 0.21l4.071 9.788 10.567 0.847-8.051 6.897 2.46 10.312-9.047-5.526-9.047 5.526 2.46-10.312-8.051-6.897 10.567-0.847 4.071-9.788z"></path>
<path fill="#ff3839" style="fill: var(--color2, #ff3839)" d="M107.532 0.21l4.071 9.788 10.567 0.847-8.051 6.897 2.46 10.312-9.047-5.526-9.047 5.526 2.46-10.312-8.051-6.897 10.567-0.847 4.071-9.788z"></path>
<path fill="#ff3839" style="fill: var(--color2, #ff3839)" d="M152.973 0.21l4.071 9.788 10.567 0.847-8.051 6.897 2.46 10.312-9.047-5.526-9.047 5.526 2.46-10.312-8.052-6.897 10.567-0.847 4.071-9.788z"></path>
<path fill="#ff3839" style="fill: var(--color2, #ff3839)" d="M198.416 0.21l4.070 9.788 10.567 0.847-8.051 6.897 2.46 10.312-9.046-5.526-9.047 5.526 2.46-10.312-8.051-6.897 10.567-0.847 4.071-9.788z"></path>
</symbol>
</defs>
</svg>
